<svg id="eFqJ5zA03CS1"
    xmlns="http://www.w3.org/2000/svg"
    xmlns:xlink="http://www.w3.org/1999/xlink"
    viewBox="0 0 300 300"
    shape-rendering="geometricPrecision"
    text-rendering="geometricPrecision">

    <rect id="p01" width="30" height="30" rx="0" ry="0" fill="#d2dbed" stroke-width="0"/>
    <rect id="p02" width="30" height="30" rx="0" ry="0" transform="translate(50.850611 0)" fill="#d2dbed" stroke-width="0"/>
    <rect id="p03" width="30" height="30" rx="0" ry="0" transform="translate(101.355662 0)" fill="#d2dbed" stroke-width="0"/>
    <rect id="p04" width="30" height="30" rx="0" ry="0" transform="translate(0 39.872408)" fill="#d2dbed" stroke-width="0"/>
    <rect id="p05" width="30" height="30" rx="0" ry="0" transform="translate(50.850611 39.872408)" fill="#d2dbed" stroke-width="0"/>
    <rect id="p06" width="30" height="30" rx="0" ry="0" transform="translate(101.355662 39.872408)" fill="#d2dbed" stroke-width="0"/>
    <rect id="p07" width="30" height="30" rx="0" ry="0" transform="translate(150 39.872408)" fill="#d2dbed" stroke-width="0"/>
    <rect id="p08" width="30" height="30" rx="0" ry="0" transform="translate(199.17597 39.872408)" fill="#d2dbed" stroke-width="0"/>
    <rect id="p09" width="30" height="30" rx="0" ry="0" transform="translate(250.212653 39.872408)" fill="#d2dbed" stroke-width="0"/>
    <rect id="p10" width="30" height="30" rx="0" ry="0" transform="translate(150 0)" fill="#d2dbed" stroke-width="0"/>
    <rect id="p11" width="30" height="30" rx="0" ry="0" transform="translate(199.17597 0)" fill="#d2dbed" stroke-width="0"/>
    <rect id="p12" width="30" height="30" rx="0" ry="0" transform="translate(250.212653 0)" fill="#d2dbed" stroke-width="0"/>
    <rect id="p13" width="30" height="30" rx="0" ry="0" transform="translate(0 99.415205)" fill="#d2dbed" stroke-width="0"/>
    <rect id="p14" width="30" height="30" rx="0" ry="0" transform="translate(50.850611 99.415205)" fill="#d2dbed" stroke-width="0"/>
    <rect id="p15" width="30" height="30" rx="0" ry="0" transform="translate(101.355662 99.415205)" fill="#d2dbed" stroke-width="0"/>
    <rect id="p16" width="30" height="30" rx="0" ry="0" transform="translate(0 140.882509)" fill="#d2dbed" stroke-width="0"/>
    <rect id="p17" width="30" height="30" rx="0" ry="0" transform="translate(50.850611 140.882509)" fill="#d2dbed" stroke-width="0"/>
    <rect id="p18" width="30" height="30" rx="0" ry="0" transform="translate(101.355662 140.882509)" fill="#d2dbed" stroke-width="0"/>
    <rect id="p19" width="30" height="30" rx="0" ry="0" transform="translate(199.17597 99.415205)" fill="#d2dbed" stroke-width="0"/>
    <rect id="p20" width="30" height="30" rx="0" ry="0" transform="translate(250.212653 98.35194)" fill="#d2dbed" stroke-width="0"/>
    <rect id="p21" width="30" height="30" rx="0" ry="0" transform="translate(199.17597 140.882509)" fill="#d2dbed" stroke-width="0"/>
    <rect id="p22" width="30" height="30" rx="0" ry="0" transform="translate(250.212653 140.882509)" fill="#d2dbed" stroke-width="0"/>
    <rect id="p23" width="30" height="30" rx="0" ry="0" transform="translate(0 198.298777)" fill="#d2dbed" stroke-width="0"/>
    <rect id="p24" width="30" height="30" rx="0" ry="0" transform="translate(50.850611 198.298777)" fill="#d2dbed" stroke-width="0"/>
    <rect id="p25" width="30" height="30" rx="0" ry="0" transform="translate(101.355662 198.298777)" fill="#d2dbed" stroke-width="0"/>
    <rect id="p26" width="30" height="30" rx="0" ry="0" transform="translate(150 198.298777)" fill="#d2dbed" stroke-width="0"/>
    <rect id="p27" width="30" height="30" rx="0" ry="0" transform="translate(199.17597 198.298777)" fill="#d2dbed" stroke-width="0"/>
    <rect id="p28" width="30" height="30" rx="0" ry="0" transform="translate(250.212653 198.298777)" fill="#d2dbed" stroke-width="0"/>
    <rect id="p29" width="30" height="30" rx="0" ry="0" transform="translate(0 240.829346)" fill="#d2dbed" stroke-width="0"/>
    <rect id="p30" width="30" height="30" rx="0" ry="0" transform="translate(50.850611 240.829346)" fill="#d2dbed" stroke-width="0"/>
    <rect id="p31" width="30" height="30" rx="0" ry="0" transform="translate(101.355662 240.829346)" fill="#d2dbed" stroke-width="0"/>
    <rect id="p32" width="30" height="30" rx="0" ry="0" transform="translate(150 240.829346)" fill="#d2dbed" stroke-width="0"/>
    <rect id="p33" width="30" height="30" rx="0" ry="0" transform="translate(199.17597 240.829346)" fill="#d2dbed" stroke-width="0"/>
    <rect id="p34" width="30" height="30" rx="0" ry="0" transform="translate(250.212653 240.829346)" fill="#d2dbed" stroke-width="0"/>
</svg>
